<svg viewBox="0 0 61 14" fill="none" xmlns="http://www.w3.org/2000/svg">
<path d="M2.66504 3.41992V9.19434C2.66504 9.73926 2.72949 10.1494 2.8584 10.4248C3.08691 10.9111 3.53516 11.1543 4.20312 11.1543C5.05859 11.1543 5.64453 10.8086 5.96094 10.1172C6.125 9.74219 6.20703 9.24707 6.20703 8.63184V3.41992H8.74707V13H6.3125V11.6465C6.28906 11.6758 6.23047 11.7637 6.13672 11.9102C6.04297 12.0566 5.93164 12.1855 5.80273 12.2969C5.41016 12.6484 5.0293 12.8887 4.66016 13.0176C4.29688 13.1465 3.86914 13.2109 3.37695 13.2109C1.95898 13.2109 1.00391 12.7012 0.511719 11.6816C0.236328 11.1191 0.0986328 10.29 0.0986328 9.19434V3.41992H2.66504Z" fill="currentColor"/>
<path d="M15.476 3.19141C15.5229 3.19141 15.5609 3.19434 15.5902 3.2002C15.6254 3.2002 15.6986 3.20312 15.81 3.20898V5.77539C15.6518 5.75781 15.5111 5.74609 15.3881 5.74023C15.265 5.73438 15.1654 5.73145 15.0893 5.73145C14.0814 5.73145 13.4047 6.05957 13.059 6.71582C12.8656 7.08496 12.7689 7.65332 12.7689 8.4209V13H10.2465V3.41992H12.6371V5.08984C13.0238 4.45117 13.3607 4.01465 13.6479 3.78027C14.1166 3.3877 14.726 3.19141 15.476 3.19141Z" fill="currentColor"/>
<path d="M20.9041 3.41992H23.4441L24.9031 10.3193L26.3973 3.41992H29.0076L26.2303 13H23.6551L22.1521 6.02148L20.6316 13H18.0301L15.3406 3.41992H18.0301L19.5242 10.293L20.9041 3.41992Z" fill="currentColor"/>
<path d="M34.7785 8.3418C34.6203 8.44141 34.4592 8.52344 34.2951 8.58789C34.1369 8.64648 33.9172 8.70215 33.6359 8.75488L33.0734 8.86035C32.5461 8.9541 32.1682 9.06836 31.9396 9.20312C31.5529 9.43164 31.3596 9.78613 31.3596 10.2666C31.3596 10.6943 31.4768 11.0049 31.7111 11.1982C31.9514 11.3857 32.2414 11.4795 32.5812 11.4795C33.1203 11.4795 33.6154 11.3213 34.0666 11.0049C34.5236 10.6885 34.7609 10.1113 34.7785 9.27344V8.3418ZM33.258 7.17285C33.7209 7.11426 34.052 7.04102 34.2512 6.95312C34.6086 6.80078 34.7873 6.56348 34.7873 6.24121C34.7873 5.84863 34.6496 5.5791 34.3742 5.43262C34.1047 5.28027 33.7062 5.2041 33.1789 5.2041C32.5871 5.2041 32.1682 5.35059 31.9221 5.64355C31.7463 5.86035 31.6291 6.15332 31.5705 6.52246H29.1535C29.2062 5.68457 29.4406 4.99609 29.8566 4.45703C30.5187 3.61328 31.6555 3.19141 33.2668 3.19141C34.3156 3.19141 35.2473 3.39941 36.0617 3.81543C36.8762 4.23145 37.2834 5.0166 37.2834 6.1709V10.5654C37.2834 10.8701 37.2893 11.2393 37.301 11.6729C37.3186 12.001 37.3684 12.2236 37.4504 12.3408C37.5324 12.458 37.6555 12.5547 37.8195 12.6309V13H35.0949C35.0187 12.8066 34.966 12.625 34.9367 12.4551C34.9074 12.2852 34.884 12.0918 34.8664 11.875C34.5207 12.25 34.1223 12.5693 33.6711 12.833C33.132 13.1436 32.5227 13.2988 31.843 13.2988C30.9758 13.2988 30.258 13.0527 29.6896 12.5605C29.1271 12.0625 28.8459 11.3594 28.8459 10.4512C28.8459 9.27344 29.3 8.4209 30.2082 7.89355C30.7062 7.60645 31.4387 7.40137 32.4055 7.27832L33.258 7.17285Z" fill="currentColor"/>
<path d="M41.1734 13H38.6686V0.0449219H41.1734V13Z" fill="currentColor"/>
<path d="M45.2832 13H42.7783V0.0449219H45.2832V13Z" fill="currentColor"/>
<path d="M50.6146 5.23047C50.0346 5.23047 49.5834 5.41211 49.2611 5.77539C48.9447 6.13867 48.7455 6.63086 48.6635 7.25195H52.557C52.516 6.58984 52.3139 6.08887 51.9506 5.74902C51.5932 5.40332 51.1479 5.23047 50.6146 5.23047ZM50.6146 3.16504C51.4115 3.16504 52.1293 3.31445 52.768 3.61328C53.4066 3.91211 53.934 4.38379 54.35 5.02832C54.725 5.59668 54.9682 6.25586 55.0795 7.00586C55.1439 7.44531 55.1703 8.07812 55.1586 8.9043H48.602C48.6371 9.86523 48.9389 10.5391 49.5072 10.9258C49.8529 11.166 50.2689 11.2861 50.7553 11.2861C51.2709 11.2861 51.6898 11.1396 52.0121 10.8467C52.1879 10.6885 52.3432 10.4688 52.4779 10.1875H55.0355C54.9711 10.7559 54.6752 11.333 54.1479 11.9189C53.3275 12.8506 52.1791 13.3164 50.7025 13.3164C49.4838 13.3164 48.4086 12.9238 47.477 12.1387C46.5453 11.3535 46.0795 10.0762 46.0795 8.30664C46.0795 6.64844 46.4984 5.37695 47.3363 4.49219C48.1801 3.60742 49.2729 3.16504 50.6146 3.16504Z" fill="currentColor"/>
<path d="M54.9705 5.29199V3.50781H56.3064V0.835938H58.785V3.50781H60.3406V5.29199H58.785V10.3545C58.785 10.7471 58.8348 10.9932 58.9344 11.0928C59.034 11.1865 59.3387 11.2334 59.8484 11.2334C59.9246 11.2334 60.0037 11.2334 60.0857 11.2334C60.1736 11.2275 60.2586 11.2217 60.3406 11.2158V13.0879L59.1541 13.1318C57.9705 13.1729 57.1619 12.9678 56.7283 12.5166C56.4471 12.2295 56.3064 11.7871 56.3064 11.1895V5.29199H54.9705Z" fill="currentColor"/>
</svg>
