<svg width="397" height="691" viewBox="0 0 397 691" fill="none" xmlns="http://www.w3.org/2000/svg">
<g clip-path="url(#clip0)">
<path d="M109.85 553.227C104.658 546.599 95.0779 545.436 88.45 550.628C81.8221 555.82 80.6594 565.4 85.8511 572.028C91.0532 578.646 100.63 579.806 107.26 574.62C113.88 569.425 115.039 559.851 109.85 553.227ZM87.8467 570.462C83.5147 564.941 84.4785 556.954 89.9993 552.622C95.5202 548.29 103.508 549.254 107.84 554.774C112.165 560.298 111.202 568.279 105.687 572.615C100.166 576.947 92.1787 575.983 87.8467 570.462Z" fill="#063357"/>
<path d="M100.97 565.399C102.051 565.846 103.296 565.57 104.087 564.708C105.343 563.423 104.561 561.337 103.638 559.931L105.745 558.278L104.725 556.979L102.637 558.617L101.952 557.745L104.041 556.106L103.021 554.807L100.933 556.445L98.8787 553.828L97.5329 554.884L98.2976 555.859C98.6399 556.295 98.6775 556.61 98.3248 556.887L92.5422 561.424C92.0595 561.803 91.7216 561.678 91.5177 561.418L90.7384 560.425L89.3647 561.503L91.3457 564.028L89.2109 565.703L90.2378 567.012L92.3726 565.337L93.0572 566.209L90.9224 567.884L91.9202 569.156L94.0551 567.481L94.2735 567.759C96.3711 570.432 98.379 570.297 100.161 568.898C101.195 568.052 101.527 566.614 100.97 565.399ZM100.523 558.866L101.251 559.795C101.761 560.444 102.655 561.813 101.597 562.643C100.941 563.229 99.9432 563.204 99.3177 562.586L97.9703 560.869L100.523 558.866ZM94.9688 565.549L94.9781 565.542L93.8492 564.103L96.6338 561.918L97.9447 563.589C98.2506 563.979 99.2714 565.547 98.2318 566.363C97.1923 567.179 96.0613 566.941 94.9688 565.549Z" fill="#063357"/>
</g>
<g clip-path="url(#clip1)">
<path d="M108.843 660.197C103.651 653.569 94.071 652.407 87.4431 657.598C80.8152 662.79 79.6526 672.371 84.8443 678.998C90.0464 685.617 99.6229 686.776 106.254 681.59C112.873 676.396 114.032 666.821 108.843 660.197ZM86.8398 677.433C82.5078 671.912 83.4716 663.924 88.9925 659.592C94.5133 655.26 102.501 656.224 106.833 661.745C111.158 667.268 110.195 675.249 104.68 679.585C99.1595 683.917 91.1719 682.953 86.8398 677.433Z" fill="#063357"/>
<path d="M99.9631 672.369C101.044 672.817 102.289 672.54 103.08 671.678C104.336 670.393 103.554 668.307 102.631 666.902L104.738 665.248L103.718 663.949L101.63 665.588L100.945 664.715L103.034 663.076L102.014 661.777L99.9258 663.416L97.8719 660.798L96.526 661.854L97.2908 662.829C97.6331 663.265 97.6706 663.581 97.3179 663.857L91.5353 668.395C91.0527 668.773 90.7148 668.649 90.5108 668.389L89.7316 667.396L88.3578 668.473L90.3389 670.998L88.204 672.673L89.231 673.982L91.3658 672.307L92.0504 673.179L89.9156 674.854L90.9134 676.126L93.0482 674.451L93.2667 674.729C95.3643 677.403 97.3722 677.267 99.1543 675.868C100.188 675.023 100.521 673.585 99.9631 672.369ZM99.516 665.837L100.244 666.765C100.754 667.415 101.648 668.783 100.59 669.613C99.9341 670.2 98.9363 670.174 98.3109 669.557L96.9635 667.84L99.516 665.837ZM93.962 672.519L93.9712 672.512L92.8424 671.073L95.6269 668.888L96.9379 670.559C97.2438 670.949 98.2646 672.517 97.225 673.333C96.1854 674.149 95.0545 673.912 93.962 672.519Z" fill="#063357"/>
</g>
<g clip-path="url(#clip2)">
<path d="M109.85 463.633C104.658 457.005 95.0779 455.842 88.45 461.034C81.8221 466.226 80.6594 475.806 85.8511 482.434C91.0532 489.052 100.63 490.212 107.26 485.026C113.88 479.831 115.039 470.257 109.85 463.633ZM87.8467 480.868C83.5147 475.347 84.4785 467.36 89.9993 463.028C95.5202 458.696 103.508 459.66 107.84 465.18C112.165 470.704 111.202 478.685 105.687 483.021C100.166 487.353 92.1787 486.389 87.8467 480.868Z" fill="#063357"/>
<path d="M100.97 475.805C102.051 476.252 103.296 475.976 104.087 475.114C105.343 473.829 104.561 471.743 103.638 470.337L105.745 468.684L104.725 467.385L102.637 469.023L101.952 468.151L104.041 466.512L103.021 465.213L100.933 466.851L98.8787 464.234L97.5329 465.29L98.2976 466.265C98.6399 466.701 98.6775 467.016 98.3248 467.293L92.5422 471.83C92.0595 472.209 91.7216 472.084 91.5177 471.824L90.7384 470.831L89.3647 471.909L91.3457 474.434L89.2109 476.109L90.2378 477.418L92.3726 475.743L93.0572 476.615L90.9224 478.29L91.9202 479.562L94.0551 477.887L94.2735 478.165C96.3711 480.838 98.379 480.703 100.161 479.304C101.195 478.458 101.527 477.02 100.97 475.805ZM100.523 469.272L101.251 470.201C101.761 470.85 102.655 472.219 101.597 473.049C100.941 473.635 99.9432 473.61 99.3177 472.992L97.9703 471.275L100.523 469.272ZM94.9688 475.955L94.9781 475.948L93.8492 474.509L96.6338 472.324L97.9447 473.995C98.2506 474.385 99.2714 475.953 98.2318 476.769C97.1923 477.585 96.0613 477.347 94.9688 475.955Z" fill="#063357"/>
</g>
<g clip-path="url(#clip3)">
<path d="M109.85 374.039C104.658 367.411 95.0779 366.249 88.45 371.44C81.8221 376.632 80.6594 386.212 85.8511 392.84C91.0532 399.458 100.63 400.618 107.26 395.432C113.88 390.237 115.039 380.663 109.85 374.039ZM87.8467 391.274C83.5147 385.753 84.4785 377.766 89.9993 373.434C95.5202 369.102 103.508 370.066 107.84 375.586C112.165 381.11 111.202 389.091 105.687 393.427C100.166 397.759 92.1787 396.795 87.8467 391.274Z" fill="#063357"/>
<path d="M100.97 386.211C102.051 386.658 103.296 386.382 104.087 385.52C105.343 384.235 104.561 382.149 103.638 380.743L105.745 379.09L104.725 377.791L102.637 379.429L101.952 378.557L104.041 376.918L103.021 375.619L100.933 377.257L98.8787 374.64L97.5329 375.696L98.2976 376.671C98.6399 377.107 98.6775 377.422 98.3248 377.699L92.5422 382.236C92.0595 382.615 91.7216 382.49 91.5177 382.23L90.7384 381.237L89.3647 382.315L91.3457 384.84L89.2109 386.515L90.2378 387.824L92.3726 386.149L93.0572 387.021L90.9224 388.696L91.9202 389.968L94.0551 388.293L94.2735 388.571C96.3711 391.244 98.379 391.109 100.161 389.71C101.195 388.864 101.527 387.426 100.97 386.211ZM100.523 379.678L101.251 380.607C101.761 381.256 102.655 382.625 101.597 383.455C100.941 384.041 99.9432 384.016 99.3177 383.398L97.9703 381.681L100.523 379.678ZM94.9688 386.361L94.9781 386.354L93.8492 384.915L96.6338 382.73L97.9447 384.401C98.2506 384.791 99.2714 386.359 98.2318 387.175C97.1923 387.991 96.0613 387.753 94.9688 386.361Z" fill="#063357"/>
</g>
<g clip-path="url(#clip4)">
<path d="M109.85 284.445C104.658 277.817 95.0779 276.655 88.45 281.846C81.8221 287.038 80.6594 296.618 85.8511 303.246C91.0532 309.864 100.63 311.024 107.26 305.838C113.88 300.643 115.039 291.069 109.85 284.445ZM87.8467 301.68C83.5147 296.16 84.4785 288.172 89.9993 283.84C95.5202 279.508 103.508 280.472 107.84 285.992C112.165 291.516 111.202 299.497 105.687 303.833C100.166 308.165 92.1787 307.201 87.8467 301.68Z" fill="#063357"/>
<path d="M100.97 296.617C102.051 297.064 103.296 296.788 104.087 295.926C105.343 294.641 104.561 292.555 103.638 291.149L105.745 289.496L104.725 288.197L102.637 289.835L101.952 288.963L104.041 287.324L103.021 286.025L100.933 287.663L98.8787 285.046L97.5329 286.102L98.2976 287.077C98.6399 287.513 98.6775 287.828 98.3248 288.105L92.5422 292.642C92.0595 293.021 91.7216 292.896 91.5177 292.637L90.7384 291.643L89.3647 292.721L91.3457 295.246L89.2109 296.921L90.2378 298.23L92.3726 296.555L93.0572 297.427L90.9224 299.102L91.9202 300.374L94.0551 298.699L94.2735 298.977C96.3711 301.65 98.379 301.515 100.161 300.116C101.195 299.27 101.527 297.832 100.97 296.617ZM100.523 290.084L101.251 291.013C101.761 291.662 102.655 293.031 101.597 293.861C100.941 294.447 99.9432 294.422 99.3177 293.804L97.9703 292.087L100.523 290.084ZM94.9688 296.767L94.9781 296.76L93.8492 295.321L96.6338 293.136L97.9447 294.807C98.2506 295.197 99.2714 296.765 98.2318 297.581C97.1923 298.397 96.0613 298.159 94.9688 296.767Z" fill="#063357"/>
</g>
<g clip-path="url(#clip5)">
<path d="M109.85 194.851C104.658 188.223 95.0779 187.061 88.45 192.252C81.8221 197.444 80.6594 207.025 85.8511 213.652C91.0532 220.271 100.63 221.43 107.26 216.244C113.88 211.05 115.039 201.475 109.85 194.851ZM87.8467 212.087C83.5147 206.566 84.4785 198.578 89.9993 194.246C95.5202 189.914 103.508 190.878 107.84 196.399C112.165 201.922 111.202 209.903 105.687 214.239C100.166 218.571 92.1787 217.607 87.8467 212.087Z" fill="#063357"/>
<path d="M100.97 207.023C102.051 207.471 103.296 207.194 104.087 206.332C105.343 205.047 104.561 202.961 103.638 201.556L105.745 199.902L104.725 198.603L102.637 200.242L101.952 199.369L104.041 197.73L103.021 196.431L100.933 198.07L98.8787 195.452L97.5329 196.508L98.2976 197.483C98.6399 197.919 98.6775 198.235 98.3248 198.511L92.5422 203.049C92.0595 203.427 91.7216 203.303 91.5177 203.043L90.7384 202.05L89.3647 203.128L91.3457 205.652L89.2109 207.327L90.2378 208.636L92.3726 206.961L93.0572 207.833L90.9224 209.509L91.9202 210.78L94.0551 209.105L94.2735 209.383C96.3711 212.057 98.379 211.921 100.161 210.522C101.195 209.677 101.527 208.239 100.97 207.023ZM100.523 200.491L101.251 201.419C101.761 202.069 102.655 203.437 101.597 204.267C100.941 204.854 99.9432 204.828 99.3177 204.211L97.9703 202.494L100.523 200.491ZM94.9688 207.173L94.9781 207.166L93.8492 205.727L96.6338 203.542L97.9447 205.213C98.2506 205.603 99.2714 207.171 98.2318 207.987C97.1923 208.803 96.0613 208.566 94.9688 207.173Z" fill="#063357"/>
</g>
<g clip-path="url(#clip6)">
<path d="M109.85 105.258C104.658 98.6297 95.0779 97.467 88.45 102.659C81.8221 107.85 80.6594 117.431 85.8511 124.059C91.0532 130.677 100.63 131.837 107.26 126.65C113.88 121.456 115.039 111.882 109.85 105.258ZM87.8467 122.493C83.5147 116.972 84.4785 108.984 89.9993 104.652C95.5202 100.32 103.508 101.284 107.84 106.805C112.165 112.328 111.202 120.309 105.687 124.645C100.166 128.977 92.1787 128.014 87.8467 122.493Z" fill="#063357"/>
<path d="M100.97 117.43C102.051 117.877 103.296 117.6 104.087 116.739C105.343 115.453 104.561 113.367 103.638 111.962L105.745 110.309L104.725 109.009L102.637 110.648L101.952 109.775L104.041 108.137L103.021 106.837L100.933 108.476L98.8787 105.858L97.5329 106.915L98.2976 107.889C98.6399 108.325 98.6775 108.641 98.3248 108.918L92.5422 113.455C92.0595 113.834 91.7216 113.709 91.5177 113.449L90.7384 112.456L89.3647 113.534L91.3457 116.058L89.2109 117.734L90.2378 119.042L92.3726 117.367L93.0572 118.24L90.9224 119.915L91.9202 121.186L94.0551 119.511L94.2735 119.79C96.3711 122.463 98.379 122.327 100.161 120.929C101.195 120.083 101.527 118.645 100.97 117.43ZM100.523 110.897L101.251 111.825C101.761 112.475 102.655 113.843 101.597 114.673C100.941 115.26 99.9432 115.234 99.3177 114.617L97.9703 112.9L100.523 110.897ZM94.9688 117.58L94.9781 117.572L93.8492 116.134L96.6338 113.949L97.9447 115.619C98.2506 116.009 99.2714 117.578 98.2318 118.393C97.1923 119.209 96.0613 118.972 94.9688 117.58Z" fill="#063357"/>
</g>
<g clip-path="url(#clip7)">
<path d="M109.85 12.0012C104.658 5.37331 95.0779 4.21066 88.45 9.40234C81.8221 14.594 80.6594 24.1745 85.8511 30.8024C91.0532 37.4206 100.63 38.5803 107.26 33.3939C113.88 28.1996 115.039 18.6254 109.85 12.0012ZM87.8467 29.2365C83.5147 23.7157 84.4785 15.728 89.9993 11.396C95.5202 7.06393 103.508 8.0277 107.84 13.5485C112.165 19.0719 111.202 27.0529 105.687 31.389C100.166 35.7211 92.1787 34.7573 87.8467 29.2365Z" fill="#063357"/>
<path d="M100.97 24.1734C102.051 24.6206 103.296 24.344 104.087 23.4823C105.343 22.1969 104.561 20.111 103.638 18.7056L105.745 17.0523L104.725 15.7528L102.637 17.3916L101.952 16.5191L104.041 14.8804L103.021 13.5809L100.933 15.2196L98.8787 12.6021L97.5329 13.6582L98.2976 14.6328C98.6399 15.069 98.6775 15.3845 98.3248 15.6612L92.5422 20.1986C92.0595 20.5773 91.7216 20.4525 91.5177 20.1927L90.7384 19.1995L89.3647 20.2774L91.3457 22.8021L89.2109 24.4772L90.2378 25.786L92.3726 24.1108L93.0572 24.9833L90.9224 26.6584L91.9202 27.9301L94.0551 26.2549L94.2735 26.5334C96.3711 29.2066 98.379 29.0707 100.161 27.6724C101.195 26.8265 101.527 25.3885 100.97 24.1734ZM100.523 17.6406L101.251 18.5688C101.761 19.2185 102.655 20.5869 101.597 21.4171C100.941 22.0036 99.9432 21.9781 99.3177 21.3606L97.9703 19.6435L100.523 17.6406ZM94.9688 24.3232L94.9781 24.3159L93.8492 22.8772L96.6338 20.6923L97.9447 22.363C98.2506 22.7529 99.2714 24.3213 98.2318 25.137C97.1923 25.9528 96.0613 25.7155 94.9688 24.3232Z" fill="#063357"/>
</g>
<g clip-path="url(#clip8)">
<path d="M386.931 503.171C381.739 496.543 372.159 495.381 365.531 500.572C358.903 505.764 357.74 515.344 362.932 521.972C368.134 528.591 377.71 529.75 384.341 524.564C390.961 519.37 392.119 509.795 386.931 503.171ZM364.927 520.406C360.595 514.886 361.559 506.898 367.08 502.566C372.601 498.234 380.588 499.198 384.921 504.718C389.245 510.242 388.283 518.223 382.768 522.559C377.247 526.891 369.259 525.927 364.927 520.406Z" fill="#063357"/>
<path d="M378.051 515.343C379.132 515.791 380.377 515.514 381.168 514.652C382.423 513.367 381.642 511.281 380.719 509.875L382.826 508.222L381.806 506.923L379.718 508.561L379.033 507.689L381.121 506.05L380.102 504.751L378.013 506.39L375.959 503.772L374.614 504.828L375.378 505.803C375.721 506.239 375.758 506.554 375.405 506.831L369.623 511.369C369.14 511.747 368.802 511.622 368.598 511.363L367.819 510.369L366.445 511.447L368.426 513.972L366.292 515.647L367.318 516.956L369.453 515.281L370.138 516.153L368.003 517.828L369.001 519.1L371.136 517.425L371.354 517.703C373.452 520.376 375.46 520.241 377.242 518.842C378.276 517.996 378.608 516.558 378.051 515.343ZM377.604 508.811L378.332 509.739C378.842 510.388 379.735 511.757 378.677 512.587C378.022 513.173 377.024 513.148 376.398 512.531L375.051 510.813L377.604 508.811ZM372.049 515.493L372.059 515.486L370.93 514.047L373.714 511.862L375.025 513.533C375.331 513.923 376.352 515.491 375.313 516.307C374.273 517.123 373.142 516.885 372.049 515.493Z" fill="#063357"/>
</g>
<g clip-path="url(#clip9)">
<path d="M385.924 610.141C380.732 603.513 371.152 602.351 364.524 607.542C357.896 612.734 356.733 622.314 361.925 628.942C367.127 635.56 376.704 636.72 383.334 631.534C389.954 626.339 391.113 616.765 385.924 610.141ZM363.921 627.376C359.589 621.856 360.552 613.868 366.073 609.536C371.594 605.204 379.582 606.168 383.914 611.688C388.239 617.212 387.276 625.193 381.761 629.529C376.24 633.861 368.253 632.897 363.921 627.376Z" fill="#063357"/>
<path d="M377.044 622.313C378.125 622.761 379.37 622.484 380.161 621.622C381.417 620.337 380.635 618.251 379.712 616.845L381.819 615.192L380.799 613.893L378.711 615.531L378.026 614.659L380.115 613.02L379.095 611.721L377.006 613.36L374.953 610.742L373.607 611.798L374.371 612.773C374.714 613.209 374.751 613.524 374.399 613.801L368.616 618.339C368.133 618.717 367.795 618.592 367.592 618.333L366.812 617.339L365.439 618.417L367.42 620.942L365.285 622.617L366.312 623.926L368.446 622.251L369.131 623.123L366.996 624.798L367.994 626.07L370.129 624.395L370.347 624.673C372.445 627.346 374.453 627.211 376.235 625.812C377.269 624.966 377.601 623.528 377.044 622.313ZM376.597 615.781L377.325 616.709C377.835 617.358 378.729 618.727 377.67 619.557C377.015 620.143 376.017 620.118 375.392 619.501L374.044 617.783L376.597 615.781ZM371.043 622.463L371.052 622.456L369.923 621.017L372.708 618.832L374.019 620.503C374.324 620.893 375.345 622.461 374.306 623.277C373.266 624.093 372.135 623.855 371.043 622.463Z" fill="#063357"/>
</g>
<g clip-path="url(#clip10)">
<path d="M386.931 413.577C381.739 406.949 372.159 405.786 365.531 410.978C358.903 416.17 357.74 425.75 362.932 432.378C368.134 438.996 377.71 440.156 384.341 434.97C390.961 429.775 392.119 420.201 386.931 413.577ZM364.927 430.812C360.595 425.291 361.559 417.304 367.08 412.972C372.601 408.64 380.588 409.603 384.921 415.124C389.245 420.648 388.283 428.629 382.768 432.965C377.247 437.297 369.259 436.333 364.927 430.812Z" fill="#063357"/>
<path d="M378.051 425.749C379.132 426.196 380.377 425.92 381.168 425.058C382.423 423.773 381.642 421.687 380.719 420.281L382.826 418.628L381.806 417.329L379.718 418.967L379.033 418.095L381.121 416.456L380.102 415.157L378.013 416.795L375.959 414.178L374.614 415.234L375.378 416.208C375.721 416.645 375.758 416.96 375.405 417.237L369.623 421.774C369.14 422.153 368.802 422.028 368.598 421.768L367.819 420.775L366.445 421.853L368.426 424.378L366.292 426.053L367.318 427.362L369.453 425.687L370.138 426.559L368.003 428.234L369.001 429.506L371.136 427.831L371.354 428.109C373.452 430.782 375.46 430.646 377.242 429.248C378.276 428.402 378.608 426.964 378.051 425.749ZM377.604 419.216L378.332 420.144C378.842 420.794 379.735 422.163 378.677 422.993C378.022 423.579 377.024 423.554 376.398 422.936L375.051 421.219L377.604 419.216ZM372.049 425.899L372.059 425.892L370.93 424.453L373.714 422.268L375.025 423.939C375.331 424.329 376.352 425.897 375.313 426.713C374.273 427.528 373.142 427.291 372.049 425.899Z" fill="#063357"/>
</g>
<g clip-path="url(#clip11)">
<path d="M386.931 323.983C381.739 317.355 372.159 316.193 365.531 321.384C358.903 326.576 357.74 336.156 362.932 342.784C368.134 349.403 377.71 350.562 384.341 345.376C390.961 340.182 392.119 330.607 386.931 323.983ZM364.927 341.218C360.595 335.698 361.559 327.71 367.08 323.378C372.601 319.046 380.588 320.01 384.921 325.53C389.245 331.054 388.283 339.035 382.768 343.371C377.247 347.703 369.259 346.739 364.927 341.218Z" fill="#063357"/>
<path d="M378.051 336.155C379.132 336.603 380.377 336.326 381.168 335.464C382.423 334.179 381.642 332.093 380.719 330.688L382.826 329.034L381.806 327.735L379.718 329.373L379.033 328.501L381.121 326.862L380.102 325.563L378.013 327.202L375.959 324.584L374.614 325.64L375.378 326.615C375.721 327.051 375.758 327.366 375.405 327.643L369.623 332.181C369.14 332.559 368.802 332.434 368.598 332.175L367.819 331.181L366.445 332.259L368.426 334.784L366.292 336.459L367.318 337.768L369.453 336.093L370.138 336.965L368.003 338.64L369.001 339.912L371.136 338.237L371.354 338.515C373.452 341.188 375.46 341.053 377.242 339.654C378.276 338.808 378.608 337.37 378.051 336.155ZM377.604 329.623L378.332 330.551C378.842 331.2 379.735 332.569 378.677 333.399C378.022 333.985 377.024 333.96 376.398 333.343L375.051 331.625L377.604 329.623ZM372.049 336.305L372.059 336.298L370.93 334.859L373.714 332.674L375.025 334.345C375.331 334.735 376.352 336.303 375.313 337.119C374.273 337.935 373.142 337.697 372.049 336.305Z" fill="#063357"/>
</g>
<g clip-path="url(#clip12)">
<path d="M386.931 234.389C381.739 227.761 372.159 226.599 365.531 231.79C358.903 236.982 357.74 246.562 362.932 253.19C368.134 259.809 377.71 260.968 384.341 255.782C390.961 250.588 392.119 241.013 386.931 234.389ZM364.927 251.624C360.595 246.104 361.559 238.116 367.08 233.784C372.601 229.452 380.588 230.416 384.921 235.936C389.245 241.46 388.283 249.441 382.768 253.777C377.247 258.109 369.259 257.145 364.927 251.624Z" fill="#063357"/>
<path d="M378.051 246.561C379.132 247.009 380.377 246.732 381.168 245.87C382.423 244.585 381.642 242.499 380.719 241.094L382.826 239.44L381.806 238.141L379.718 239.779L379.033 238.907L381.121 237.268L380.102 235.969L378.013 237.608L375.959 234.99L374.614 236.046L375.378 237.021C375.721 237.457 375.758 237.772 375.405 238.049L369.623 242.587C369.14 242.965 368.802 242.84 368.598 242.581L367.819 241.587L366.445 242.665L368.426 245.19L366.292 246.865L367.318 248.174L369.453 246.499L370.138 247.371L368.003 249.046L369.001 250.318L371.136 248.643L371.354 248.921C373.452 251.595 375.46 251.459 377.242 250.06C378.276 249.214 378.608 247.776 378.051 246.561ZM377.604 240.029L378.332 240.957C378.842 241.606 379.735 242.975 378.677 243.805C378.022 244.392 377.024 244.366 376.398 243.749L375.051 242.031L377.604 240.029ZM372.049 246.711L372.059 246.704L370.93 245.265L373.714 243.08L375.025 244.751C375.331 245.141 376.352 246.709 375.313 247.525C374.273 248.341 373.142 248.103 372.049 246.711Z" fill="#063357"/>
</g>
<g clip-path="url(#clip13)">
<path d="M386.931 144.795C381.739 138.168 372.159 137.005 365.531 142.197C358.903 147.388 357.74 156.969 362.932 163.597C368.134 170.215 377.71 171.374 384.341 166.188C390.961 160.994 392.119 151.42 386.931 144.795ZM364.927 162.031C360.595 156.51 361.559 148.522 367.08 144.19C372.601 139.858 380.588 140.822 384.921 146.343C389.245 151.866 388.283 159.847 382.768 164.183C377.247 168.515 369.259 167.552 364.927 162.031Z" fill="#063357"/>
<path d="M378.051 156.968C379.132 157.415 380.377 157.138 381.168 156.276C382.423 154.991 381.642 152.905 380.719 151.5L382.826 149.846L381.806 148.547L379.718 150.186L379.033 149.313L381.121 147.675L380.102 146.375L378.013 148.014L375.959 145.396L374.614 146.452L375.378 147.427C375.721 147.863 375.758 148.179 375.405 148.455L369.623 152.993C369.14 153.372 368.802 153.247 368.598 152.987L367.819 151.994L366.445 153.072L368.426 155.596L366.292 157.271L367.318 158.58L369.453 156.905L370.138 157.777L368.003 159.453L369.001 160.724L371.136 159.049L371.354 159.328C373.452 162.001 375.46 161.865 377.242 160.467C378.276 159.621 378.608 158.183 378.051 156.968ZM377.604 150.435L378.332 151.363C378.842 152.013 379.735 153.381 378.677 154.211C378.022 154.798 377.024 154.772 376.398 154.155L375.051 152.438L377.604 150.435ZM372.049 157.117L372.059 157.11L370.93 155.671L373.714 153.486L375.025 155.157C375.331 155.547 376.352 157.116 375.313 157.931C374.273 158.747 373.142 158.51 372.049 157.117Z" fill="#063357"/>
</g>
<g clip-path="url(#clip14)">
<path d="M386.931 55.2016C381.739 48.5738 372.159 47.4111 365.531 52.6028C358.903 57.7945 357.74 67.3749 362.932 74.0028C368.134 80.621 377.71 81.7807 384.341 76.5944C390.961 71.4 392.119 61.8258 386.931 55.2016ZM364.927 72.4369C360.595 66.9161 361.559 58.9284 367.08 54.5964C372.601 50.2644 380.588 51.2281 384.921 56.749C389.245 62.2723 388.283 70.2534 382.768 74.5895C377.247 78.9215 369.259 77.9578 364.927 72.4369Z" fill="#063357"/>
<path d="M378.051 67.3738C379.132 67.8211 380.377 67.5445 381.168 66.6827C382.423 65.3973 381.642 63.3114 380.719 61.906L382.826 60.2527L381.806 58.9533L379.718 60.592L379.033 59.7195L381.121 58.0808L380.102 56.7813L378.013 58.4201L375.959 55.8025L374.614 56.8586L375.378 57.8332C375.721 58.2695 375.758 58.5849 375.405 58.8616L369.623 63.3991C369.14 63.7778 368.802 63.653 368.598 63.3931L367.819 62.3999L366.445 63.4779L368.426 66.0025L366.292 67.6777L367.318 68.9864L369.453 67.3113L370.138 68.1837L368.003 69.8589L369.001 71.1305L371.136 69.4554L371.354 69.7338C373.452 72.407 375.46 72.2712 377.242 70.8728C378.276 70.0269 378.608 68.5889 378.051 67.3738ZM377.604 60.8411L378.332 61.7693C378.842 62.419 379.735 63.7873 378.677 64.6176C378.022 65.204 377.024 65.1786 376.398 64.5611L375.051 62.8439L377.604 60.8411ZM372.049 67.5236L372.059 67.5163L370.93 66.0777L373.714 63.8927L375.025 65.5635C375.331 65.9533 376.352 67.5218 375.313 68.3375C374.273 69.1532 373.142 68.9159 372.049 67.5236Z" fill="#063357"/>
</g>
<path d="M195.263 498.495C185.481 498.495 177.523 506.453 177.523 516.234C177.523 526.017 185.481 533.974 195.263 533.974C205.045 533.974 213.002 526.017 213.002 516.234C213.002 506.453 205.043 498.495 195.263 498.495ZM195.263 531.634C186.771 531.634 179.863 524.726 179.863 516.234C179.863 507.743 186.771 500.834 195.263 500.834C203.754 500.834 210.663 507.743 210.663 516.234C210.663 524.726 203.753 531.634 195.263 531.634ZM196.131 514.036L195.8 513.929V508.804C196.551 508.866 197.097 509.069 197.442 509.413C197.876 509.846 198.093 510.56 198.093 511.559H201.563C201.563 509.776 201.015 508.397 199.921 507.426C198.932 506.553 197.558 506.071 195.802 505.983V504.116H194.57V506.023C192.962 506.12 191.665 506.61 190.676 507.493C189.545 508.509 188.981 509.882 188.981 511.612C188.981 513.025 189.448 514.159 190.387 515.016C191.251 515.802 192.645 516.499 194.57 517.108V522.777C193.863 522.671 193.316 522.407 192.927 521.982C192.432 521.425 192.212 520.57 192.266 519.413H188.584L188.57 519.89C188.57 521.727 189.09 523.131 190.134 524.102C191.176 525.073 192.654 525.617 194.571 525.732V528.354H195.803V525.717C197.594 525.641 199.044 525.118 200.147 524.155C201.357 523.106 201.963 521.69 201.963 519.903C201.963 518.376 201.52 517.17 200.635 516.287C199.748 515.396 198.246 514.645 196.131 514.036ZM194.567 513.506C194.026 513.286 193.599 513.051 193.276 512.804C192.701 512.362 192.415 511.824 192.415 511.187C192.415 510.428 192.666 509.837 193.171 509.412C193.536 509.103 193.998 508.909 194.565 508.829L194.567 513.506ZM197.51 522.101C197.069 522.489 196.496 522.719 195.8 522.791V517.494C196.622 517.76 197.218 518.071 197.588 518.434C198.077 518.887 198.319 519.459 198.319 520.157C198.319 520.984 198.049 521.633 197.51 522.101Z" fill="#063357"/>
<path d="M194.256 605.465C184.474 605.465 176.517 613.423 176.517 623.205C176.517 632.987 184.474 640.944 194.256 640.944C204.038 640.944 211.995 632.987 211.995 623.205C211.995 613.423 204.036 605.465 194.256 605.465ZM194.256 638.605C185.764 638.605 178.856 631.696 178.856 623.205C178.856 614.713 185.764 607.805 194.256 607.805C202.748 607.805 209.656 614.713 209.656 623.205C209.656 631.696 202.746 638.605 194.256 638.605ZM195.124 621.006L194.793 620.899V615.774C195.544 615.836 196.09 616.039 196.435 616.383C196.869 616.816 197.086 617.531 197.086 618.529H200.557C200.557 616.746 200.008 615.368 198.914 614.397C197.925 613.523 196.551 613.041 194.795 612.953V611.086H193.563V612.993C191.956 613.09 190.658 613.581 189.669 614.463C188.538 615.479 187.974 616.852 187.974 618.582C187.974 619.995 188.441 621.13 189.38 621.986C190.244 622.772 191.638 623.47 193.563 624.078V629.748C192.856 629.641 192.31 629.377 191.92 628.952C191.425 628.395 191.206 627.541 191.259 626.384H187.577L187.563 626.86C187.563 628.697 188.084 630.102 189.127 631.073C190.169 632.044 191.648 632.587 193.564 632.703V635.324H194.796V632.688C196.587 632.611 198.037 632.088 199.14 631.125C200.35 630.076 200.956 628.66 200.956 626.874C200.956 625.346 200.513 624.14 199.628 623.257C198.742 622.366 197.239 621.615 195.124 621.006ZM193.56 620.476C193.019 620.256 192.592 620.021 192.27 619.774C191.695 619.332 191.408 618.794 191.408 618.158C191.408 617.399 191.659 616.807 192.165 616.382C192.53 616.073 192.991 615.879 193.559 615.799L193.56 620.476ZM196.503 629.071C196.062 629.46 195.49 629.689 194.793 629.761V624.464C195.615 624.731 196.212 625.041 196.582 625.405C197.07 625.857 197.313 626.429 197.313 627.127C197.313 627.954 197.042 628.603 196.503 629.071Z" fill="#063357"/>
<path d="M195.263 408.901C185.481 408.901 177.523 416.859 177.523 426.64C177.523 436.423 185.481 444.38 195.263 444.38C205.045 444.38 213.002 436.423 213.002 426.64C213.002 416.859 205.043 408.901 195.263 408.901ZM195.263 442.04C186.771 442.04 179.863 435.132 179.863 426.64C179.863 418.149 186.771 411.24 195.263 411.24C203.754 411.24 210.663 418.149 210.663 426.64C210.663 435.132 203.753 442.04 195.263 442.04ZM196.131 424.442L195.8 424.335V419.21C196.551 419.272 197.097 419.475 197.442 419.819C197.876 420.252 198.093 420.966 198.093 421.965H201.563C201.563 420.182 201.015 418.803 199.921 417.832C198.932 416.959 197.558 416.477 195.802 416.389V414.522H194.57V416.429C192.962 416.526 191.665 417.016 190.676 417.899C189.545 418.915 188.981 420.288 188.981 422.018C188.981 423.431 189.448 424.565 190.387 425.422C191.251 426.208 192.645 426.905 194.57 427.514V433.183C193.863 433.077 193.316 432.813 192.927 432.388C192.432 431.831 192.212 430.976 192.266 429.819H188.584L188.57 430.296C188.57 432.133 189.09 433.537 190.134 434.508C191.176 435.479 192.654 436.023 194.571 436.138V438.76H195.803V436.123C197.594 436.047 199.044 435.524 200.147 434.561C201.357 433.512 201.963 432.096 201.963 430.309C201.963 428.782 201.52 427.576 200.635 426.693C199.748 425.802 198.246 425.051 196.131 424.442ZM194.567 423.912C194.026 423.692 193.599 423.457 193.276 423.21C192.701 422.768 192.415 422.23 192.415 421.593C192.415 420.834 192.666 420.243 193.171 419.818C193.536 419.509 193.998 419.315 194.565 419.235L194.567 423.912ZM197.51 432.507C197.069 432.895 196.496 433.125 195.8 433.197V427.9C196.622 428.167 197.218 428.477 197.588 428.84C198.077 429.293 198.319 429.865 198.319 430.563C198.319 431.39 198.049 432.039 197.51 432.507Z" fill="#063357"/>
<path d="M195.263 319.307C185.481 319.307 177.523 327.265 177.523 337.046C177.523 346.829 185.481 354.786 195.263 354.786C205.045 354.786 213.002 346.829 213.002 337.046C213.002 327.265 205.043 319.307 195.263 319.307ZM195.263 352.446C186.771 352.446 179.863 345.538 179.863 337.046C179.863 328.555 186.771 321.646 195.263 321.646C203.754 321.646 210.663 328.555 210.663 337.046C210.663 345.538 203.753 352.446 195.263 352.446ZM196.131 334.848L195.8 334.741V329.616C196.551 329.678 197.097 329.881 197.442 330.225C197.876 330.658 198.093 331.372 198.093 332.371H201.563C201.563 330.588 201.015 329.209 199.921 328.238C198.932 327.365 197.558 326.883 195.802 326.795V324.928H194.57V326.835C192.962 326.932 191.665 327.422 190.676 328.305C189.545 329.321 188.981 330.694 188.981 332.424C188.981 333.837 189.448 334.971 190.387 335.828C191.251 336.614 192.645 337.311 194.57 337.92V343.589C193.863 343.483 193.316 343.219 192.927 342.794C192.432 342.237 192.212 341.382 192.266 340.225H188.584L188.57 340.702C188.57 342.539 189.09 343.943 190.134 344.914C191.176 345.885 192.654 346.429 194.571 346.544V349.166H195.803V346.529C197.594 346.453 199.044 345.93 200.147 344.967C201.357 343.918 201.963 342.502 201.963 340.715C201.963 339.188 201.52 337.982 200.635 337.099C199.748 336.208 198.246 335.457 196.131 334.848ZM194.567 334.318C194.026 334.098 193.599 333.863 193.276 333.616C192.701 333.174 192.415 332.636 192.415 331.999C192.415 331.24 192.666 330.649 193.171 330.224C193.536 329.915 193.998 329.721 194.565 329.641L194.567 334.318ZM197.51 342.913C197.069 343.301 196.496 343.531 195.8 343.603V338.306C196.622 338.573 197.218 338.883 197.588 339.246C198.077 339.699 198.319 340.271 198.319 340.969C198.319 341.796 198.049 342.445 197.51 342.913Z" fill="#063357"/>
<path d="M195.263 229.713C185.481 229.713 177.523 237.671 177.523 247.453C177.523 257.235 185.481 265.192 195.263 265.192C205.045 265.192 213.002 257.235 213.002 247.453C213.002 237.671 205.043 229.713 195.263 229.713ZM195.263 262.853C186.771 262.853 179.863 255.944 179.863 247.453C179.863 238.961 186.771 232.053 195.263 232.053C203.754 232.053 210.663 238.961 210.663 247.453C210.663 255.944 203.753 262.853 195.263 262.853ZM196.131 245.254L195.8 245.147V240.022C196.551 240.084 197.097 240.287 197.442 240.631C197.876 241.064 198.093 241.779 198.093 242.777H201.563C201.563 240.994 201.015 239.616 199.921 238.645C198.932 237.771 197.558 237.289 195.802 237.201V235.334H194.57V237.241C192.962 237.338 191.665 237.829 190.676 238.712C189.545 239.727 188.981 241.1 188.981 242.83C188.981 244.243 189.448 245.378 190.387 246.234C191.251 247.02 192.645 247.718 194.57 248.327V253.996C193.863 253.889 193.316 253.625 192.927 253.201C192.432 252.643 192.212 251.789 192.266 250.632H188.584L188.57 251.108C188.57 252.945 189.09 254.35 190.134 255.321C191.176 256.292 192.654 256.835 194.571 256.951V259.572H195.803V256.936C197.594 256.859 199.044 256.336 200.147 255.373C201.357 254.324 201.963 252.908 201.963 251.122C201.963 249.594 201.52 248.388 200.635 247.505C199.748 246.614 198.246 245.863 196.131 245.254ZM194.567 244.724C194.026 244.504 193.599 244.269 193.276 244.022C192.701 243.58 192.415 243.042 192.415 242.406C192.415 241.647 192.666 241.055 193.171 240.63C193.536 240.321 193.998 240.127 194.565 240.047L194.567 244.724ZM197.51 253.319C197.069 253.708 196.496 253.937 195.8 254.009V248.712C196.622 248.979 197.218 249.289 197.588 249.653C198.077 250.105 198.319 250.677 198.319 251.375C198.319 252.202 198.049 252.851 197.51 253.319Z" fill="#063357"/>
<path d="M195.263 140.12C185.481 140.12 177.523 148.077 177.523 157.859C177.523 167.641 185.481 175.598 195.263 175.598C205.045 175.598 213.002 167.641 213.002 157.859C213.002 148.077 205.043 140.12 195.263 140.12ZM195.263 173.259C186.771 173.259 179.863 166.351 179.863 157.859C179.863 149.367 186.771 142.459 195.263 142.459C203.754 142.459 210.663 149.367 210.663 157.859C210.663 166.351 203.753 173.259 195.263 173.259ZM196.131 155.66L195.8 155.553V150.428C196.551 150.49 197.097 150.694 197.442 151.037C197.876 151.47 198.093 152.185 198.093 153.184H201.563C201.563 151.4 201.015 150.022 199.921 149.051C198.932 148.178 197.558 147.696 195.802 147.608V145.74H194.57V147.648C192.962 147.745 191.665 148.235 190.676 149.118C189.545 150.133 188.981 151.506 188.981 153.236C188.981 154.649 189.448 155.784 190.387 156.64C191.251 157.426 192.645 158.124 194.57 158.733V164.402C193.863 164.296 193.316 164.032 192.927 163.607C192.432 163.049 192.212 162.195 192.266 161.038H188.584L188.57 161.514C188.57 163.351 189.09 164.756 190.134 165.727C191.176 166.698 192.654 167.242 194.571 167.357V169.978H195.803V167.342C197.594 167.265 199.044 166.742 200.147 165.779C201.357 164.731 201.963 163.314 201.963 161.528C201.963 160.001 201.52 158.794 200.635 157.911C199.748 157.021 198.246 156.269 196.131 155.66ZM194.567 155.13C194.026 154.91 193.599 154.675 193.276 154.428C192.701 153.986 192.415 153.448 192.415 152.812C192.415 152.053 192.666 151.461 193.171 151.036C193.536 150.727 193.998 150.533 194.565 150.454L194.567 155.13ZM197.51 163.726C197.069 164.114 196.496 164.343 195.8 164.415V159.119C196.622 159.385 197.218 159.696 197.588 160.059C198.077 160.511 198.319 161.083 198.319 161.781C198.319 162.608 198.049 163.257 197.51 163.726Z" fill="#063357"/>
<path d="M195.263 50.5259C185.481 50.5259 177.523 58.4836 177.523 68.2652C177.523 78.0475 185.481 86.0044 195.263 86.0044C205.045 86.0044 213.002 78.0473 213.002 68.2652C213.002 58.4836 205.043 50.5259 195.263 50.5259ZM195.263 83.6651C186.771 83.6651 179.863 76.7568 179.863 68.2652C179.863 59.7735 186.771 52.8652 195.263 52.8652C203.754 52.8652 210.663 59.7735 210.663 68.2652C210.663 76.7568 203.753 83.6651 195.263 83.6651ZM196.131 66.0663L195.8 65.9595V60.8343C196.551 60.8965 197.097 61.0998 197.442 61.4436C197.876 61.8765 198.093 62.5911 198.093 63.5898H201.563C201.563 61.8063 201.015 60.4281 199.921 59.4572C198.932 58.5839 197.558 58.1019 195.802 58.014V56.1464H194.57V58.054C192.962 58.151 191.665 58.6411 190.676 59.524C189.545 60.5394 188.981 61.9124 188.981 63.6424C188.981 65.0554 189.448 66.1902 190.387 67.0463C191.251 67.8323 192.645 68.5301 194.57 69.139V74.808C193.863 74.7018 193.316 74.438 192.927 74.013C192.432 73.4557 192.212 72.6011 192.266 71.4441H188.584L188.57 71.9205C188.57 73.7573 189.09 75.1621 190.134 76.1332C191.176 77.1041 192.654 77.6479 194.571 77.7632V80.3847H195.803V77.7482C197.594 77.6716 199.044 77.1485 200.147 76.1855C201.357 75.137 201.963 73.7206 201.963 71.9342C201.963 70.407 201.52 69.2007 200.635 68.3177C199.748 67.4268 198.246 66.6757 196.131 66.0663ZM194.567 65.5365C194.026 65.3165 193.599 65.0813 193.276 64.8344C192.701 64.3924 192.415 63.8544 192.415 63.2182C192.415 62.4591 192.666 61.8676 193.171 61.4426C193.536 61.1336 193.998 60.9394 194.565 60.86L194.567 65.5365ZM197.51 74.1319C197.069 74.5201 196.496 74.7497 195.8 74.8216V69.525C196.622 69.7913 197.218 70.1018 197.588 70.4651C198.077 70.9173 198.319 71.4897 198.319 72.1876C198.319 73.0147 198.049 73.6636 197.51 74.1319Z" fill="#063357"/>
<path d="M281.602 544.889C271.82 544.889 263.863 552.846 263.863 562.628C263.863 572.41 271.82 580.367 281.602 580.367C291.384 580.367 299.341 572.41 299.341 562.628C299.342 552.846 291.382 544.889 281.602 544.889ZM281.602 578.028C273.11 578.028 266.202 571.12 266.202 562.628C266.202 554.136 273.11 547.228 281.602 547.228C290.094 547.228 297.002 554.136 297.002 562.628C297.002 571.12 290.093 578.028 281.602 578.028ZM282.47 560.429L282.139 560.322V555.197C282.891 555.259 283.437 555.463 283.782 555.806C284.216 556.239 284.433 556.954 284.433 557.953H287.903C287.903 556.169 287.354 554.791 286.26 553.82C285.271 552.947 283.897 552.465 282.141 552.377V550.509H280.909V552.417C279.302 552.514 278.004 553.004 277.015 553.887C275.885 554.902 275.32 556.275 275.32 558.005C275.32 559.418 275.788 560.553 276.726 561.409C277.59 562.195 278.985 562.893 280.909 563.502V569.171C280.202 569.065 279.656 568.801 279.266 568.376C278.772 567.818 278.552 566.964 278.606 565.807H274.923L274.909 566.283C274.909 568.12 275.43 569.525 276.473 570.496C277.515 571.467 278.994 572.011 280.91 572.126V574.747H282.142V572.111C283.934 572.034 285.383 571.511 286.486 570.548C287.696 569.5 288.303 568.083 288.303 566.297C288.303 564.77 287.86 563.563 286.974 562.681C286.088 561.79 284.586 561.038 282.47 560.429ZM280.906 559.899C280.366 559.679 279.938 559.444 279.616 559.197C279.041 558.755 278.754 558.217 278.754 557.581C278.754 556.822 279.005 556.23 279.511 555.805C279.876 555.496 280.338 555.302 280.905 555.223L280.906 559.899ZM283.849 568.495C283.408 568.883 282.836 569.112 282.139 569.184V563.888C282.961 564.154 283.558 564.465 283.928 564.828C284.417 565.28 284.659 565.853 284.659 566.55C284.659 567.377 284.388 568.026 283.849 568.495Z" fill="#063357"/>
<path d="M280.595 651.859C270.814 651.859 262.856 659.816 262.856 669.598C262.856 679.38 270.814 687.337 280.595 687.337C290.378 687.337 298.335 679.38 298.335 669.598C298.335 659.816 290.375 651.859 280.595 651.859ZM280.595 684.998C272.104 684.998 265.195 678.09 265.195 669.598C265.195 661.106 272.104 654.198 280.595 654.198C289.087 654.198 295.995 661.106 295.995 669.598C295.995 678.09 289.086 684.998 280.595 684.998ZM281.464 667.399L281.132 667.292V662.167C281.884 662.229 282.43 662.433 282.775 662.776C283.209 663.209 283.426 663.924 283.426 664.923H286.896C286.896 663.139 286.348 661.761 285.253 660.79C284.264 659.917 282.89 659.435 281.134 659.347V657.479H279.902V659.387C278.295 659.484 276.997 659.974 276.008 660.857C274.878 661.872 274.313 663.245 274.313 664.975C274.313 666.388 274.781 667.523 275.719 668.379C276.583 669.165 277.978 669.863 279.902 670.472V676.141C279.196 676.035 278.649 675.771 278.259 675.346C277.765 674.788 277.545 673.934 277.599 672.777H273.916L273.902 673.253C273.902 675.09 274.423 676.495 275.467 677.466C276.508 678.437 277.987 678.981 279.903 679.096V681.717H281.136V679.081C282.927 679.004 284.376 678.481 285.48 677.518C286.689 676.47 287.296 675.053 287.296 673.267C287.296 671.74 286.853 670.533 285.967 669.65C285.081 668.76 283.579 668.008 281.464 667.399ZM279.899 666.869C279.359 666.649 278.931 666.414 278.609 666.167C278.034 665.725 277.747 665.187 277.747 664.551C277.747 663.792 277.999 663.2 278.504 662.775C278.869 662.466 279.331 662.272 279.898 662.193L279.899 666.869ZM282.842 675.465C282.401 675.853 281.829 676.082 281.132 676.154V670.858C281.955 671.124 282.551 671.435 282.921 671.798C283.41 672.25 283.652 672.823 283.652 673.52C283.652 674.347 283.381 674.996 282.842 675.465Z" fill="#063357"/>
<path d="M281.602 455.294C271.82 455.294 263.863 463.252 263.863 473.034C263.863 482.816 271.82 490.773 281.602 490.773C291.384 490.773 299.341 482.816 299.341 473.034C299.342 463.252 291.382 455.294 281.602 455.294ZM281.602 488.434C273.11 488.434 266.202 481.525 266.202 473.034C266.202 464.542 273.11 457.634 281.602 457.634C290.094 457.634 297.002 464.542 297.002 473.034C297.002 481.525 290.093 488.434 281.602 488.434ZM282.47 470.835L282.139 470.728V465.603C282.891 465.665 283.437 465.868 283.782 466.212C284.216 466.645 284.433 467.36 284.433 468.358H287.903C287.903 466.575 287.354 465.197 286.26 464.226C285.271 463.352 283.897 462.87 282.141 462.783V460.915H280.909V462.823C279.302 462.92 278.004 463.41 277.015 464.293C275.885 465.308 275.32 466.681 275.32 468.411C275.32 469.824 275.788 470.959 276.726 471.815C277.59 472.601 278.985 473.299 280.909 473.908V479.577C280.202 479.47 279.656 479.207 279.266 478.782C278.772 478.224 278.552 477.37 278.606 476.213H274.923L274.909 476.689C274.909 478.526 275.43 479.931 276.473 480.902C277.515 481.873 278.994 482.416 280.91 482.532V485.153H282.142V482.517C283.934 482.44 285.383 481.917 286.486 480.954C287.696 479.906 288.303 478.489 288.303 476.703C288.303 475.176 287.86 473.969 286.974 473.086C286.088 472.195 284.586 471.444 282.47 470.835ZM280.906 470.305C280.366 470.085 279.938 469.85 279.616 469.603C279.041 469.161 278.754 468.623 278.754 467.987C278.754 467.228 279.005 466.636 279.511 466.211C279.876 465.902 280.338 465.708 280.905 465.629L280.906 470.305ZM283.849 478.9C283.408 479.289 282.836 479.518 282.139 479.59V474.294C282.961 474.56 283.558 474.87 283.928 475.234C284.417 475.686 284.659 476.258 284.659 476.956C284.659 477.783 284.388 478.432 283.849 478.9Z" fill="#063357"/>
<path d="M281.602 365.701C271.82 365.701 263.863 373.658 263.863 383.44C263.863 393.222 271.82 401.179 281.602 401.179C291.384 401.179 299.341 393.222 299.341 383.44C299.342 373.658 291.382 365.701 281.602 365.701ZM281.602 398.84C273.11 398.84 266.202 391.932 266.202 383.44C266.202 374.948 273.11 368.04 281.602 368.04C290.094 368.04 297.002 374.948 297.002 383.44C297.002 391.932 290.093 398.84 281.602 398.84ZM282.47 381.241L282.139 381.134V376.009C282.891 376.071 283.437 376.275 283.782 376.618C284.216 377.051 284.433 377.766 284.433 378.765H287.903C287.903 376.981 287.354 375.603 286.26 374.632C285.271 373.759 283.897 373.277 282.141 373.189V371.321H280.909V373.229C279.302 373.326 278.004 373.816 277.015 374.699C275.885 375.714 275.32 377.087 275.32 378.817C275.32 380.23 275.788 381.365 276.726 382.221C277.59 383.007 278.985 383.705 280.909 384.314V389.983C280.202 389.877 279.656 389.613 279.266 389.188C278.772 388.63 278.552 387.776 278.606 386.619H274.923L274.909 387.095C274.909 388.932 275.43 390.337 276.473 391.308C277.515 392.279 278.994 392.823 280.91 392.938V395.559H282.142V392.923C283.934 392.846 285.383 392.323 286.486 391.36C287.696 390.312 288.303 388.895 288.303 387.109C288.303 385.582 287.86 384.375 286.974 383.493C286.088 382.602 284.586 381.85 282.47 381.241ZM280.906 380.711C280.366 380.491 279.938 380.256 279.616 380.009C279.041 379.567 278.754 379.029 278.754 378.393C278.754 377.634 279.005 377.042 279.511 376.617C279.876 376.308 280.338 376.114 280.905 376.035L280.906 380.711ZM283.849 389.307C283.408 389.695 282.836 389.924 282.139 389.996V384.7C282.961 384.966 283.558 385.277 283.928 385.64C284.417 386.092 284.659 386.665 284.659 387.362C284.659 388.189 284.388 388.838 283.849 389.307Z" fill="#063357"/>
<path d="M281.602 276.107C271.82 276.107 263.863 284.064 263.863 293.846C263.863 303.628 271.82 311.585 281.602 311.585C291.384 311.585 299.341 303.628 299.341 293.846C299.342 284.064 291.382 276.107 281.602 276.107ZM281.602 309.246C273.11 309.246 266.202 302.338 266.202 293.846C266.202 285.354 273.11 278.446 281.602 278.446C290.094 278.446 297.002 285.354 297.002 293.846C297.002 302.338 290.093 309.246 281.602 309.246ZM282.47 291.647L282.139 291.54V286.415C282.891 286.477 283.437 286.681 283.782 287.024C284.216 287.457 284.433 288.172 284.433 289.171H287.903C287.903 287.387 287.354 286.009 286.26 285.038C285.271 284.165 283.897 283.683 282.141 283.595V281.727H280.909V283.635C279.302 283.732 278.004 284.222 277.015 285.105C275.885 286.12 275.32 287.493 275.32 289.223C275.32 290.636 275.788 291.771 276.726 292.627C277.59 293.413 278.985 294.111 280.909 294.72V300.389C280.202 300.283 279.656 300.019 279.266 299.594C278.772 299.036 278.552 298.182 278.606 297.025H274.923L274.909 297.501C274.909 299.338 275.43 300.743 276.473 301.714C277.515 302.685 278.994 303.229 280.91 303.344V305.965H282.142V303.329C283.934 303.252 285.383 302.729 286.486 301.766C287.696 300.718 288.303 299.301 288.303 297.515C288.303 295.988 287.86 294.781 286.974 293.899C286.088 293.008 284.586 292.256 282.47 291.647ZM280.906 291.117C280.366 290.897 279.938 290.662 279.616 290.415C279.041 289.973 278.754 289.435 278.754 288.799C278.754 288.04 279.005 287.448 279.511 287.023C279.876 286.714 280.338 286.52 280.905 286.441L280.906 291.117ZM283.849 299.713C283.408 300.101 282.836 300.33 282.139 300.402V295.106C282.961 295.372 283.558 295.683 283.928 296.046C284.417 296.498 284.659 297.071 284.659 297.768C284.659 298.595 284.388 299.244 283.849 299.713Z" fill="#063357"/>
<path d="M281.602 186.513C271.82 186.513 263.863 194.471 263.863 204.252C263.863 214.035 271.82 221.991 281.602 221.991C291.384 221.991 299.341 214.034 299.341 204.252C299.342 194.471 291.382 186.513 281.602 186.513ZM281.602 219.652C273.11 219.652 266.202 212.744 266.202 204.252C266.202 195.761 273.11 188.852 281.602 188.852C290.094 188.852 297.002 195.761 297.002 204.252C297.002 212.744 290.093 219.652 281.602 219.652ZM282.47 202.053L282.139 201.947V196.821C282.891 196.884 283.437 197.087 283.782 197.431C284.216 197.864 284.433 198.578 284.433 199.577H287.903C287.903 197.793 287.354 196.415 286.26 195.444C285.271 194.571 283.897 194.089 282.141 194.001V192.133H280.909V194.041C279.302 194.138 278.004 194.628 277.015 195.511C275.885 196.526 275.32 197.899 275.32 199.629C275.32 201.043 275.788 202.177 276.726 203.033C277.59 203.819 278.985 204.517 280.909 205.126V210.795C280.202 210.689 279.656 210.425 279.266 210C278.772 209.443 278.552 208.588 278.606 207.431H274.923L274.909 207.908C274.909 209.744 275.43 211.149 276.473 212.12C277.515 213.091 278.994 213.635 280.91 213.75V216.372H282.142V213.735C283.934 213.659 285.383 213.136 286.486 212.173C287.696 211.124 288.303 209.708 288.303 207.921C288.303 206.394 287.86 205.188 286.974 204.305C286.088 203.414 284.586 202.663 282.47 202.053ZM280.906 201.524C280.366 201.304 279.938 201.068 279.616 200.821C279.041 200.379 278.754 199.841 278.754 199.205C278.754 198.446 279.005 197.855 279.511 197.43C279.876 197.121 280.338 196.926 280.905 196.847L280.906 201.524ZM283.849 210.119C283.408 210.507 282.836 210.737 282.139 210.809V205.512C282.961 205.778 283.558 206.089 283.928 206.452C284.417 206.904 284.659 207.477 284.659 208.175C284.659 209.002 284.388 209.651 283.849 210.119Z" fill="#063357"/>
<path d="M281.602 96.9192C271.82 96.9192 263.863 104.877 263.863 114.658C263.863 124.441 271.82 132.398 281.602 132.398C291.384 132.398 299.341 124.441 299.341 114.658C299.342 104.877 291.382 96.9192 281.602 96.9192ZM281.602 130.058C273.11 130.058 266.202 123.15 266.202 114.658C266.202 106.167 273.11 99.2585 281.602 99.2585C290.094 99.2585 297.002 106.167 297.002 114.658C297.002 123.15 290.093 130.058 281.602 130.058ZM282.47 112.46L282.139 112.353V107.228C282.891 107.29 283.437 107.493 283.782 107.837C284.216 108.27 284.433 108.984 284.433 109.983H287.903C287.903 108.2 287.354 106.821 286.26 105.85C285.271 104.977 283.897 104.495 282.141 104.407V102.54H280.909V104.447C279.302 104.544 278.004 105.034 277.015 105.917C275.885 106.933 275.32 108.306 275.32 110.036C275.32 111.449 275.788 112.584 276.726 113.44C277.59 114.226 278.985 114.923 280.909 115.532V121.201C280.202 121.095 279.656 120.831 279.266 120.406C278.772 119.849 278.552 118.994 278.606 117.837H274.923L274.909 118.314C274.909 120.151 275.43 121.555 276.473 122.526C277.515 123.497 278.994 124.041 280.91 124.157V126.778H282.142V124.141C283.934 124.065 285.383 123.542 286.486 122.579C287.696 121.53 288.303 120.114 288.303 118.328C288.303 116.8 287.86 115.594 286.974 114.711C286.088 113.82 284.586 113.069 282.47 112.46ZM280.906 111.93C280.366 111.71 279.938 111.475 279.616 111.228C279.041 110.786 278.754 110.248 278.754 109.612C278.754 108.852 279.005 108.261 279.511 107.836C279.876 107.527 280.338 107.333 280.905 107.253L280.906 111.93ZM283.849 120.525C283.408 120.913 282.836 121.143 282.139 121.215V115.918C282.961 116.185 283.558 116.495 283.928 116.858C284.417 117.311 284.659 117.883 284.659 118.581C284.659 119.408 284.388 120.057 283.849 120.525Z" fill="#063357"/>
<path d="M281.602 3.66284C271.82 3.66284 263.863 11.6205 263.863 21.4021C263.863 31.1845 271.82 39.1414 281.602 39.1414C291.384 39.1414 299.341 31.1843 299.341 21.4021C299.342 11.6205 291.382 3.66284 281.602 3.66284ZM281.602 36.8021C273.11 36.8021 266.202 29.8938 266.202 21.4021C266.202 12.9105 273.11 6.00214 281.602 6.00214C290.094 6.00214 297.002 12.9105 297.002 21.4021C297.002 29.8938 290.093 36.8021 281.602 36.8021ZM282.47 19.2033L282.139 19.0964V13.9712C282.891 14.0335 283.437 14.2368 283.782 14.5806C284.216 15.0134 284.433 15.7281 284.433 16.7268H287.903C287.903 14.9433 287.354 13.565 286.26 12.5941C285.271 11.7208 283.897 11.2389 282.141 11.1509V9.28335H280.909V11.1909C279.302 11.2879 278.004 11.778 277.015 12.661C275.885 13.6763 275.32 15.0494 275.32 16.7794C275.32 18.1924 275.788 19.3272 276.726 20.1833C277.59 20.9692 278.985 21.6671 280.909 22.276V27.945C280.202 27.8387 279.656 27.5749 279.266 27.15C278.772 26.5926 278.552 25.7381 278.606 24.5811H274.923L274.909 25.0575C274.909 26.8943 275.43 28.299 276.473 29.2701C277.515 30.241 278.994 30.7848 280.91 30.9002V33.5217H282.142V30.8851C283.934 30.8086 285.383 30.2855 286.486 29.3225C287.696 28.2739 288.303 26.8576 288.303 25.0712C288.303 23.5439 287.86 22.3376 286.974 21.4547C286.088 20.5638 284.586 19.8126 282.47 19.2033ZM280.906 18.6734C280.366 18.4535 279.938 18.2183 279.616 17.9713C279.041 17.5294 278.754 16.9914 278.754 16.3552C278.754 15.5961 279.005 15.0045 279.511 14.5796C279.876 14.2706 280.338 14.0764 280.905 13.9969L280.906 18.6734ZM283.849 27.2688C283.408 27.6571 282.836 27.8867 282.139 27.9585V22.6619C282.961 22.9282 283.558 23.2388 283.928 23.6021C284.417 24.0543 284.659 24.6267 284.659 25.3245C284.659 26.1516 284.388 26.8006 283.849 27.2688Z" fill="#063357"/>
<path d="M19.2569 498.495C9.47526 498.495 1.51758 506.453 1.51758 516.234C1.51758 526.017 9.47526 533.974 19.2569 533.974C29.0392 533.974 36.9961 526.017 36.9961 516.234C36.9963 506.453 29.0369 498.495 19.2569 498.495ZM19.2569 531.634C10.7652 531.634 3.85688 524.726 3.85688 516.234C3.85688 507.743 10.7652 500.834 19.2569 500.834C27.7485 500.834 34.6568 507.743 34.6568 516.234C34.6568 524.726 27.7473 531.634 19.2569 531.634ZM20.1251 514.036L19.7937 513.929V508.804C20.5454 508.866 21.0914 509.069 21.4363 509.413C21.8704 509.846 22.0874 510.56 22.0874 511.559H25.5576C25.5576 509.776 25.0092 508.397 23.915 507.426C22.9257 506.553 21.5517 506.071 19.796 505.983V504.116H18.5637V506.023C16.9566 506.12 15.6589 506.61 14.6697 507.493C13.5393 508.509 12.9747 509.882 12.9747 511.612C12.9747 513.025 13.4423 514.159 14.3807 515.016C15.2448 515.802 16.6395 516.499 18.5637 517.108V522.777C17.8571 522.671 17.3106 522.407 16.921 521.982C16.4263 521.425 16.2066 520.57 16.2603 519.413H12.5781L12.5638 519.89C12.5638 521.727 13.0846 523.131 14.1282 524.102C15.17 525.073 16.6485 525.617 18.5648 525.732V528.354H19.7972V525.717C21.5884 525.641 23.038 525.118 24.1413 524.155C25.351 523.106 25.9574 521.69 25.9574 519.903C25.9574 518.376 25.5143 517.17 24.629 516.287C23.7426 515.396 22.2405 514.645 20.1251 514.036ZM18.5608 513.506C18.0204 513.286 17.5928 513.051 17.2706 512.804C16.6955 512.362 16.4087 511.824 16.4087 511.187C16.4087 510.428 16.6601 509.837 17.1655 509.412C17.5305 509.103 17.9924 508.909 18.5596 508.829L18.5608 513.506ZM21.5038 522.101C21.063 522.489 20.4906 522.719 19.7937 522.791V517.494C20.6162 517.76 21.2126 518.071 21.5826 518.434C22.0714 518.887 22.3135 519.459 22.3135 520.157C22.3135 520.984 22.0429 521.633 21.5038 522.101Z" fill="#063357"/>
<path d="M18.25 605.465C8.46843 605.465 0.510742 613.423 0.510742 623.205C0.510742 632.987 8.46843 640.944 18.25 640.944C28.0324 640.944 35.9893 632.987 35.9893 623.205C35.9895 613.423 28.0301 605.465 18.25 605.465ZM18.25 638.605C9.75838 638.605 2.85004 631.696 2.85004 623.205C2.85004 614.713 9.75838 607.805 18.25 607.805C26.7417 607.805 33.65 614.713 33.65 623.205C33.65 631.696 26.7405 638.605 18.25 638.605ZM19.1183 621.006L18.7869 620.899V615.774C19.5386 615.836 20.0845 616.039 20.4295 616.383C20.8635 616.816 21.0806 617.531 21.0806 618.529H24.5508C24.5508 616.746 24.0023 615.368 22.9081 614.397C21.9189 613.523 20.5449 613.041 18.7892 612.953V611.086H17.5568V612.993C15.9498 613.09 14.6521 613.581 13.6628 614.463C12.5325 615.479 11.9678 616.852 11.9678 618.582C11.9678 619.995 12.4355 621.13 13.3739 621.986C14.2379 622.772 15.6326 623.47 17.5568 624.078V629.748C16.8503 629.641 16.3038 629.377 15.9142 628.952C15.4195 628.395 15.1997 627.541 15.2535 626.384H11.5713L11.557 626.86C11.557 628.697 12.0778 630.102 13.1213 631.073C14.1631 632.044 15.6417 632.587 17.558 632.703V635.324H18.7903V632.688C20.5816 632.611 22.0312 632.088 23.1344 631.125C24.3442 630.076 24.9506 628.66 24.9506 626.874C24.9506 625.346 24.5075 624.14 23.6222 623.257C22.7358 622.366 21.2336 621.615 19.1183 621.006ZM17.5539 620.476C17.0136 620.256 16.5859 620.021 16.2638 619.774C15.6887 619.332 15.4019 618.794 15.4019 618.158C15.4019 617.399 15.6533 616.807 16.1587 616.382C16.5237 616.073 16.9856 615.879 17.5528 615.799L17.5539 620.476ZM20.4969 629.071C20.0561 629.46 19.4837 629.689 18.7869 629.761V624.464C19.6093 624.731 20.2057 625.041 20.5758 625.405C21.0645 625.857 21.3067 626.429 21.3067 627.127C21.3067 627.954 21.0361 628.603 20.4969 629.071Z" fill="#063357"/>
<path d="M19.2569 408.901C9.47526 408.901 1.51758 416.859 1.51758 426.64C1.51758 436.423 9.47526 444.38 19.2569 444.38C29.0392 444.38 36.9961 436.423 36.9961 426.64C36.9963 416.859 29.0369 408.901 19.2569 408.901ZM19.2569 442.04C10.7652 442.04 3.85688 435.132 3.85688 426.64C3.85688 418.149 10.7652 411.24 19.2569 411.24C27.7485 411.24 34.6568 418.149 34.6568 426.64C34.6568 435.132 27.7473 442.04 19.2569 442.04ZM20.1251 424.442L19.7937 424.335V419.21C20.5454 419.272 21.0914 419.475 21.4363 419.819C21.8704 420.252 22.0874 420.966 22.0874 421.965H25.5576C25.5576 420.182 25.0092 418.803 23.915 417.832C22.9257 416.959 21.5517 416.477 19.796 416.389V414.522H18.5637V416.429C16.9566 416.526 15.6589 417.016 14.6697 417.899C13.5393 418.915 12.9747 420.288 12.9747 422.018C12.9747 423.431 13.4423 424.565 14.3807 425.422C15.2448 426.208 16.6395 426.905 18.5637 427.514V433.183C17.8571 433.077 17.3106 432.813 16.921 432.388C16.4263 431.831 16.2066 430.976 16.2603 429.819H12.5781L12.5638 430.296C12.5638 432.133 13.0846 433.537 14.1282 434.508C15.17 435.479 16.6485 436.023 18.5648 436.138V438.76H19.7972V436.123C21.5884 436.047 23.038 435.524 24.1413 434.561C25.351 433.512 25.9574 432.096 25.9574 430.309C25.9574 428.782 25.5143 427.576 24.629 426.693C23.7426 425.802 22.2405 425.051 20.1251 424.442ZM18.5608 423.912C18.0204 423.692 17.5928 423.457 17.2706 423.21C16.6955 422.768 16.4087 422.23 16.4087 421.593C16.4087 420.834 16.6601 420.243 17.1655 419.818C17.5305 419.509 17.9924 419.315 18.5596 419.235L18.5608 423.912ZM21.5038 432.507C21.063 432.895 20.4906 433.125 19.7937 433.197V427.9C20.6162 428.167 21.2126 428.477 21.5826 428.84C22.0714 429.293 22.3135 429.865 22.3135 430.563C22.3135 431.39 22.0429 432.039 21.5038 432.507Z" fill="#063357"/>
<path d="M19.2569 319.307C9.47526 319.307 1.51758 327.265 1.51758 337.046C1.51758 346.829 9.47526 354.786 19.2569 354.786C29.0392 354.786 36.9961 346.829 36.9961 337.046C36.9963 327.265 29.0369 319.307 19.2569 319.307ZM19.2569 352.446C10.7652 352.446 3.85688 345.538 3.85688 337.046C3.85688 328.555 10.7652 321.646 19.2569 321.646C27.7485 321.646 34.6568 328.555 34.6568 337.046C34.6568 345.538 27.7473 352.446 19.2569 352.446ZM20.1251 334.848L19.7937 334.741V329.616C20.5454 329.678 21.0914 329.881 21.4363 330.225C21.8704 330.658 22.0874 331.372 22.0874 332.371H25.5576C25.5576 330.588 25.0092 329.209 23.915 328.238C22.9257 327.365 21.5517 326.883 19.796 326.795V324.928H18.5637V326.835C16.9566 326.932 15.6589 327.422 14.6697 328.305C13.5393 329.321 12.9747 330.694 12.9747 332.424C12.9747 333.837 13.4423 334.971 14.3807 335.828C15.2448 336.614 16.6395 337.311 18.5637 337.92V343.589C17.8571 343.483 17.3106 343.219 16.921 342.794C16.4263 342.237 16.2066 341.382 16.2603 340.225H12.5781L12.5638 340.702C12.5638 342.539 13.0846 343.943 14.1282 344.914C15.17 345.885 16.6485 346.429 18.5648 346.544V349.166H19.7972V346.529C21.5884 346.453 23.038 345.93 24.1413 344.967C25.351 343.918 25.9574 342.502 25.9574 340.715C25.9574 339.188 25.5143 337.982 24.629 337.099C23.7426 336.208 22.2405 335.457 20.1251 334.848ZM18.5608 334.318C18.0204 334.098 17.5928 333.863 17.2706 333.616C16.6955 333.174 16.4087 332.636 16.4087 331.999C16.4087 331.24 16.6601 330.649 17.1655 330.224C17.5305 329.915 17.9924 329.721 18.5596 329.641L18.5608 334.318ZM21.5038 342.913C21.063 343.301 20.4906 343.531 19.7937 343.603V338.306C20.6162 338.573 21.2126 338.883 21.5826 339.246C22.0714 339.699 22.3135 340.271 22.3135 340.969C22.3135 341.796 22.0429 342.445 21.5038 342.913Z" fill="#063357"/>
<path d="M19.2569 229.713C9.47526 229.713 1.51758 237.671 1.51758 247.453C1.51758 257.235 9.47526 265.192 19.2569 265.192C29.0392 265.192 36.9961 257.235 36.9961 247.453C36.9963 237.671 29.0369 229.713 19.2569 229.713ZM19.2569 262.853C10.7652 262.853 3.85688 255.944 3.85688 247.453C3.85688 238.961 10.7652 232.053 19.2569 232.053C27.7485 232.053 34.6568 238.961 34.6568 247.453C34.6568 255.944 27.7473 262.853 19.2569 262.853ZM20.1251 245.254L19.7937 245.147V240.022C20.5454 240.084 21.0914 240.287 21.4363 240.631C21.8704 241.064 22.0874 241.779 22.0874 242.777H25.5576C25.5576 240.994 25.0092 239.616 23.915 238.645C22.9257 237.771 21.5517 237.289 19.796 237.201V235.334H18.5637V237.241C16.9566 237.338 15.6589 237.829 14.6697 238.712C13.5393 239.727 12.9747 241.1 12.9747 242.83C12.9747 244.243 13.4423 245.378 14.3807 246.234C15.2448 247.02 16.6395 247.718 18.5637 248.327V253.996C17.8571 253.889 17.3106 253.625 16.921 253.201C16.4263 252.643 16.2066 251.789 16.2603 250.632H12.5781L12.5638 251.108C12.5638 252.945 13.0846 254.35 14.1282 255.321C15.17 256.292 16.6485 256.835 18.5648 256.951V259.572H19.7972V256.936C21.5884 256.859 23.038 256.336 24.1413 255.373C25.351 254.324 25.9574 252.908 25.9574 251.122C25.9574 249.594 25.5143 248.388 24.629 247.505C23.7426 246.614 22.2405 245.863 20.1251 245.254ZM18.5608 244.724C18.0204 244.504 17.5928 244.269 17.2706 244.022C16.6955 243.58 16.4087 243.042 16.4087 242.406C16.4087 241.647 16.6601 241.055 17.1655 240.63C17.5305 240.321 17.9924 240.127 18.5596 240.047L18.5608 244.724ZM21.5038 253.319C21.063 253.708 20.4906 253.937 19.7937 254.009V248.712C20.6162 248.979 21.2126 249.289 21.5826 249.653C22.0714 250.105 22.3135 250.677 22.3135 251.375C22.3135 252.202 22.0429 252.851 21.5038 253.319Z" fill="#063357"/>
<path d="M19.2569 140.12C9.47526 140.12 1.51758 148.077 1.51758 157.859C1.51758 167.641 9.47526 175.598 19.2569 175.598C29.0392 175.598 36.9961 167.641 36.9961 157.859C36.9963 148.077 29.0369 140.12 19.2569 140.12ZM19.2569 173.259C10.7652 173.259 3.85688 166.351 3.85688 157.859C3.85688 149.367 10.7652 142.459 19.2569 142.459C27.7485 142.459 34.6568 149.367 34.6568 157.859C34.6568 166.351 27.7473 173.259 19.2569 173.259ZM20.1251 155.66L19.7937 155.553V150.428C20.5454 150.49 21.0914 150.694 21.4363 151.037C21.8704 151.47 22.0874 152.185 22.0874 153.184H25.5576C25.5576 151.4 25.0092 150.022 23.915 149.051C22.9257 148.178 21.5517 147.696 19.796 147.608V145.74H18.5637V147.648C16.9566 147.745 15.6589 148.235 14.6697 149.118C13.5393 150.133 12.9747 151.506 12.9747 153.236C12.9747 154.649 13.4423 155.784 14.3807 156.64C15.2448 157.426 16.6395 158.124 18.5637 158.733V164.402C17.8571 164.296 17.3106 164.032 16.921 163.607C16.4263 163.049 16.2066 162.195 16.2603 161.038H12.5781L12.5638 161.514C12.5638 163.351 13.0846 164.756 14.1282 165.727C15.17 166.698 16.6485 167.242 18.5648 167.357V169.978H19.7972V167.342C21.5884 167.265 23.038 166.742 24.1413 165.779C25.351 164.731 25.9574 163.314 25.9574 161.528C25.9574 160.001 25.5143 158.794 24.629 157.911C23.7426 157.021 22.2405 156.269 20.1251 155.66ZM18.5608 155.13C18.0204 154.91 17.5928 154.675 17.2706 154.428C16.6955 153.986 16.4087 153.448 16.4087 152.812C16.4087 152.053 16.6601 151.461 17.1655 151.036C17.5305 150.727 17.9924 150.533 18.5596 150.454L18.5608 155.13ZM21.5038 163.726C21.063 164.114 20.4906 164.343 19.7937 164.415V159.119C20.6162 159.385 21.2126 159.696 21.5826 160.059C22.0714 160.511 22.3135 161.083 22.3135 161.781C22.3135 162.608 22.0429 163.257 21.5038 163.726Z" fill="#063357"/>
<path d="M19.2569 50.5259C9.47526 50.5259 1.51758 58.4836 1.51758 68.2652C1.51758 78.0475 9.47526 86.0044 19.2569 86.0044C29.0392 86.0044 36.9961 78.0473 36.9961 68.2652C36.9963 58.4836 29.0369 50.5259 19.2569 50.5259ZM19.2569 83.6651C10.7652 83.6651 3.85688 76.7568 3.85688 68.2652C3.85688 59.7735 10.7652 52.8652 19.2569 52.8652C27.7485 52.8652 34.6568 59.7735 34.6568 68.2652C34.6568 76.7568 27.7473 83.6651 19.2569 83.6651ZM20.1251 66.0663L19.7937 65.9595V60.8343C20.5454 60.8965 21.0914 61.0998 21.4363 61.4436C21.8704 61.8765 22.0874 62.5911 22.0874 63.5898H25.5576C25.5576 61.8063 25.0092 60.4281 23.915 59.4572C22.9257 58.5839 21.5517 58.1019 19.796 58.014V56.1464H18.5637V58.054C16.9566 58.151 15.6589 58.6411 14.6697 59.524C13.5393 60.5394 12.9747 61.9124 12.9747 63.6424C12.9747 65.0554 13.4423 66.1902 14.3807 67.0463C15.2448 67.8323 16.6395 68.5301 18.5637 69.139V74.808C17.8571 74.7018 17.3106 74.438 16.921 74.013C16.4263 73.4557 16.2066 72.6011 16.2603 71.4441H12.5781L12.5638 71.9205C12.5638 73.7573 13.0846 75.1621 14.1282 76.1332C15.17 77.1041 16.6485 77.6479 18.5648 77.7632V80.3847H19.7972V77.7482C21.5884 77.6716 23.038 77.1485 24.1413 76.1855C25.351 75.137 25.9574 73.7206 25.9574 71.9342C25.9574 70.407 25.5143 69.2007 24.629 68.3177C23.7426 67.4268 22.2405 66.6757 20.1251 66.0663ZM18.5608 65.5365C18.0204 65.3165 17.5928 65.0813 17.2706 64.8344C16.6955 64.3924 16.4087 63.8544 16.4087 63.2182C16.4087 62.4591 16.6601 61.8676 17.1655 61.4426C17.5305 61.1336 17.9924 60.9394 18.5596 60.86L18.5608 65.5365ZM21.5038 74.1319C21.063 74.5201 20.4906 74.7497 19.7937 74.8216V69.525C20.6162 69.7913 21.2126 70.1018 21.5826 70.4651C22.0714 70.9173 22.3135 71.4897 22.3135 72.1876C22.3135 73.0147 22.0429 73.6636 21.5038 74.1319Z" fill="#063357"/>
<defs>
<clipPath id="clip0">
<rect x="100.433" y="541.226" width="30.4865" height="30.4865" transform="rotate(51.8799 100.433 541.226)" fill="white"/>
</clipPath>
<clipPath id="clip1">
<rect x="99.426" y="648.196" width="30.4865" height="30.4865" transform="rotate(51.8799 99.426 648.196)" fill="white"/>
</clipPath>
<clipPath id="clip2">
<rect x="100.433" y="451.632" width="30.4865" height="30.4865" transform="rotate(51.8799 100.433 451.632)" fill="white"/>
</clipPath>
<clipPath id="clip3">
<rect x="100.433" y="362.038" width="30.4865" height="30.4865" transform="rotate(51.8799 100.433 362.038)" fill="white"/>
</clipPath>
<clipPath id="clip4">
<rect x="100.433" y="272.444" width="30.4865" height="30.4865" transform="rotate(51.8799 100.433 272.444)" fill="white"/>
</clipPath>
<clipPath id="clip5">
<rect x="100.433" y="182.85" width="30.4865" height="30.4865" transform="rotate(51.8799 100.433 182.85)" fill="white"/>
</clipPath>
<clipPath id="clip6">
<rect x="100.433" y="93.2563" width="30.4865" height="30.4865" transform="rotate(51.8799 100.433 93.2563)" fill="white"/>
</clipPath>
<clipPath id="clip7">
<rect x="100.433" width="30.4865" height="30.4865" transform="rotate(51.8799 100.433 0)" fill="white"/>
</clipPath>
<clipPath id="clip8">
<rect x="377.514" y="491.17" width="30.4865" height="30.4865" transform="rotate(51.8799 377.514 491.17)" fill="white"/>
</clipPath>
<clipPath id="clip9">
<rect x="376.507" y="598.14" width="30.4865" height="30.4865" transform="rotate(51.8799 376.507 598.14)" fill="white"/>
</clipPath>
<clipPath id="clip10">
<rect x="377.514" y="401.576" width="30.4865" height="30.4865" transform="rotate(51.8799 377.514 401.576)" fill="white"/>
</clipPath>
<clipPath id="clip11">
<rect x="377.514" y="311.982" width="30.4865" height="30.4865" transform="rotate(51.8799 377.514 311.982)" fill="white"/>
</clipPath>
<clipPath id="clip12">
<rect x="377.514" y="222.388" width="30.4865" height="30.4865" transform="rotate(51.8799 377.514 222.388)" fill="white"/>
</clipPath>
<clipPath id="clip13">
<rect x="377.514" y="132.794" width="30.4865" height="30.4865" transform="rotate(51.8799 377.514 132.794)" fill="white"/>
</clipPath>
<clipPath id="clip14">
<rect x="377.514" y="43.2004" width="30.4865" height="30.4865" transform="rotate(51.8799 377.514 43.2004)" fill="white"/>
</clipPath>
</defs>
</svg>
