<svg width="25" height="25" viewBox="0 0 25 25" fill="none" xmlns="http://www.w3.org/2000/svg">
<circle cx="12.5" cy="12.5" r="12.5" fill="white"/>
<mask id="mask0" mask-type="alpha" maskUnits="userSpaceOnUse" x="0" y="0" width="25" height="25">
<rect y="0.520844" width="25" height="24.3151" rx="12.1575" fill="#F4F4F4"/>
</mask>
<g mask="url(#mask0)">
<path d="M18.1649 9.99572C18.1649 12.9274 15.7883 15.3039 12.8567 15.3039C9.92505 15.3039 7.54848 12.9274 7.54848 9.99572C7.54848 7.06407 9.92505 4.6875 12.8567 4.6875C15.7883 4.6875 18.1649 7.06407 18.1649 9.99572Z" fill="#C4C4C4"/>
<path d="M24.6718 28.653C24.6718 35.1782 19.382 40.468 12.8567 40.468C6.33141 40.468 1.04163 35.1782 1.04163 28.653C1.04163 22.1277 6.33141 16.8379 12.8567 16.8379C19.382 16.8379 24.6718 22.1277 24.6718 28.653Z" fill="#C4C4C4"/>
</g>
</svg>
